<?xml version="1.0" encoding="utf-8"?>
<!-- Generator: Adobe Illustrator 27.9.3, SVG Export Plug-In . SVG Version: 9.03 Build 53313)  -->
<svg version="1.1" id="Layer_1" xmlns="http://www.w3.org/2000/svg" xmlns:xlink="http://www.w3.org/1999/xlink" x="0px" y="0px"
	 viewBox="0 0 512 512" style="enable-background:new 0 0 512 512;" xml:space="preserve">
<style type="text/css">
	.st0{fill:url(#SVGID_1_);}
	.st1{fill:url(#SVGID_00000108990850230660901980000001734670602594129845_);}
	.st2{fill:url(#SVGID_00000145036148891039330890000018056287900413927348_);}
	.st3{fill:url(#SVGID_00000093154928051223518810000002966881306484085400_);}
</style>
<linearGradient id="SVGID_1_" gradientUnits="userSpaceOnUse" x1="101.103" y1="205.1117" x2="147.5338" y2="205.1117" gradientTransform="matrix(-0.9343 -0.3564 0.3564 -0.9343 163.7171 432.3732)">
	<stop  offset="0" style="stop-color:#FE9577"/>
	<stop  offset="1" style="stop-color:#016A88"/>
</linearGradient>
<circle class="st0" cx="120.7" cy="196.4" r="23.2"/>
<g>
	
		<linearGradient id="SVGID_00000044156517364685928650000016090342059509636799_" gradientUnits="userSpaceOnUse" x1="86.6468" y1="36.0851" x2="86.6468" y2="484.942">
		<stop  offset="0" style="stop-color:#FE9577"/>
		<stop  offset="1" style="stop-color:#016A88"/>
	</linearGradient>
	<path style="fill:url(#SVGID_00000044156517364685928650000016090342059509636799_);" d="M51.5,147.6l-13.7,31.1l-7.2,30.5
		c-0.3,9-3.7,26-3.7,26s3.1,17.4,2.8,20.6c-0.5,5.5,9.5,74.7,9.5,74.7L67.5,386l54.4,55.5l24.5,15.5l-1.5-29.5L141,403l-26-25.3
		l-23-19.1l6.2-61.3l16.7-26l4.4-7.6l-18.2-23L37.8,220l8.5-40.9L78,122.6l4.5-4.5H70.6L51.5,147.6z"/>
	
		<linearGradient id="SVGID_00000004547368534265614000000001976464880581534864_" gradientUnits="userSpaceOnUse" x1="286.9583" y1="36.0851" x2="286.9583" y2="484.942">
		<stop  offset="0" style="stop-color:#FE9577"/>
		<stop  offset="1" style="stop-color:#016A88"/>
	</linearGradient>
	<path style="fill:url(#SVGID_00000004547368534265614000000001976464880581534864_);" d="M416.8,322.5l-31.5-6.9l-17.6-28.3
		l3.6-29.9l7.2-45.2l26.8-20.7l28.1,0.8l42.5,10.1l-28.5-66.8l-36.8-1.9L380,164.2l-16.1-5.6l-23-15.3l7.7-33.7l43.3-10.7V77.4
		l-55.6-33.3L281.9,31l-24.2-3.4l-60.9,7.8l-63,22.5l-10.3,8.8h10.1c2.4,0,4.6,0.7,6.4,1.9l50.6-24.5l35.2-5.4l8.6,31.9
		c0,0-0.8,11.5,0,19.9c0.8,8.4,0,27.6,0,27.6s-6.9,9.2-14.6,15.3c-3.3,2.7-18.5,11.7-18.5,11.7l0.9,10.9l-2.5,25.6l-10.5,14.3
		l-14-7.4L161,163.1l-23.5-7.1c0,0-16.5-3.4-19.6,0c-3.1,3.4-13.8,9.5-16.1,11.8c-15.4,14.3,21.2,48.1,22.2,49.4
		c1,1.4,24.9,23.5,26.9,26.2c1.3,1.7,3.7,5.4,5.4,9l46.9,4.9l50.5,42.1l33.1,19.5l2.2,19.2l-21,28.8l-20.8,15.7c0,0-10.7,10.4-13,12
		c-2.3,1.5-30.2,77.6-30.2,77.6l63.2,12l69.7-13.8l63.1-40l49.5-54.2l11.1-30.7l1.5-17.3l-9.6-7.2L416.8,322.5z"/>
</g>
<linearGradient id="SVGID_00000062894569872338537930000001650030936685009335_" gradientUnits="userSpaceOnUse" x1="256.1" y1="135.234" x2="256.1" y2="621.7039" gradientTransform="matrix(1 0 0 -1 0 624)">
	<stop  offset="0" style="stop-color:#FE9577"/>
	<stop  offset="1" style="stop-color:#016A88"/>
</linearGradient>
<path style="fill:url(#SVGID_00000062894569872338537930000001650030936685009335_);" d="M484.9,199.9L484.9,199.9
	c-5.4-22.1-13.9-43.3-25.3-63c-16.3-28-37.7-52-63.6-71.3c-40.8-30.3-89.2-46.3-140-46.3c-14.2,0-28.5,1.3-42.4,3.8
	c-39.5,7.2-76.8,24.7-107.8,50.5c-45.6,38-75.2,91.2-83.1,149.9c-1.5,10.7-2.2,21.6-2.2,32.3c0,42.1,11.2,83.5,32.3,119.6
	c20.4,34.9,49.6,64.2,84.4,84.7l0,0c19.8,11.6,41,20.2,63.2,25.6c18.2,4.4,36.9,6.7,55.6,6.7c45.6,0,89.8-13.1,127.9-37.8
	c37.2-24.2,66.8-58.2,85.6-98.4c14.7-31.5,22.2-65.3,22.2-100.4C491.6,237.1,489.4,218.2,484.9,199.9z M431.2,128.6l-18.6-4.6
	c-6-1.5-12.1,0.1-16.8,4.3c-4.7,4.2-7.3,10.4-7.1,17.1c0,0.3-0.1,0.5-0.3,0.7l-13.6,9.7c-0.2,0.2-0.5,0.2-0.8,0l-19.2-11.9
	c-1.7-1.1-2.6-3.2-2.1-5.3l4.3-20c0.5-2.1,2.2-3.7,4.2-3.7l16.3-0.5c10.9-0.3,20-9,22.1-20.2C411.5,104.5,422,116,431.2,128.6z
	 M39.2,256c0-6.3,0.3-12.7,0.8-19.1l12.6,2.2c3.2,0.6,6.4,0.8,9.6,0.8h6.4c8.8,0,17.6,3.1,24.7,8.9l9.6,7.8c0.8,0.7,1.4,1.7,1.5,2.8
	l1.3,13.1c0.2,2.1-1.1,4.1-3.1,4.4c-11,1.9-19.1,12.4-18.9,24.5l0.7,46.2c0.1,5.3,1.7,10.2,4.6,14.4l15.3,21.8
	c7.2,10.3,17,17.9,28.2,22.2c3.1,1.2,5,4.6,4.6,8.1l-2.7,20.8C75.3,394.9,39.2,327.5,39.2,256z M138.6,386.7
	c-7.7-2.9-14.5-8.2-19.4-15.2l-15.3-21.8c-0.5-0.7-0.7-1.5-0.8-2.4l-0.7-46.2c0-2,1.3-3.7,3.1-4c11.8-2.1,20.1-13.8,18.8-26.7
	l-1.3-13.1c-0.7-6.7-3.9-12.9-9-17l-9.6-7.8c-10.3-8.3-23-12.9-35.8-12.9h-6.4c-2.2,0-4.4-0.2-6.6-0.6l-12.8-2.3
	c9.1-49.5,35.3-94.2,74.4-126.8c27.6-23,60.6-38.8,95.6-45.8c5.3,4.8,9.4,11,12,18l0.5,1.5c1.3,3.7,2.2,7.5,2.6,11.4l0.5,4.4
	c0.8,7.9-0.3,16-3.2,23.3l-5.1,12.6c-3.3,8.3-8.8,15.2-15.9,20l-6.4,4.4c-6.4,4.4-10.2,12.3-9.8,20.5l0.9,18.7c0,1-0.4,1.6-0.7,2
	c-0.4,0.4-0.9,0.8-1.8,0.7c-0.8-0.1-1.5-0.6-1.8-1.3l-7.8-15.8c-2.7-5.5-7.4-9.5-12.9-11.2l-27.6-8.4c-7.3-2.2-15-1.5-21.9,1.8
	l-6.6,3.2c-13.8,6.8-21.4,23.5-18,39.5c1.4,6.4,4.3,12.2,8.6,16.8l17.9,19.5c1,1.1,2,2.3,2.9,3.5l12.3,16.5
	c5.4,7.3,13.5,11.4,22.1,11.4h0.1l33.5-0.1l0,0c3.4,0,6.6,2,8.4,5.2c4,7.5,10.8,12.8,18.6,14.7l12.6,2.9c2.8,0.6,5.1,2.6,6.5,5.2
	l6.1,12.1c2.4,4.8,6.1,8.7,10.6,11.2l28.5,15.7c2.3,1.3,3.7,4.1,3.4,6.9c-0.2,1.6-0.9,3.1-2.1,4.2L269,345.5
	c-3.1,2.9-5.4,6.7-6.9,10.8l-2.4,6.8c-0.7,2.1-2.2,3.8-4.1,4.6l-11.5,5.2c-9.8,4.4-16.2,14.7-16.2,26.3c0,1.3-0.3,2.6-0.8,3.7
	L197.6,464c-15.9-4.4-31.2-10.7-45.7-18.6l3.8-28.6C157.3,403.8,150.2,391.1,138.6,386.7z M256,472.2c-13.2,0-26.5-1.2-39.4-3.6
	l27-56c2-4.1,3-8.6,3-13.2c0-3.3,1.8-6.2,4.6-7.5l11.5-5.2c6.7-3,12-8.9,14.5-16.3l2.4-6.8c0.4-1,0.9-2,1.7-2.7l10.8-10.4
	c4.6-4.4,7.5-10.4,8.3-17c1.3-11.3-4.1-22.4-13.5-27.6l-28.5-15.7c-1.1-0.6-2-1.6-2.7-2.8l-6.1-12.1c-4-7.9-10.9-13.5-19-15.4
	L218,257c-2.7-0.6-5-2.4-6.3-5c-5.1-9.5-14.5-15.3-24.6-15.3H187l-33.5,0.1l0,0c-2.9,0-5.7-1.4-7.5-3.9l-12.3-16.5
	c-1.3-1.8-2.7-3.5-4.2-5.1l-17.9-19.5c-1.8-1.9-3-4.3-3.6-7c-1.4-6.7,1.7-13.6,7.4-16.4l6.6-3.2c2.8-1.4,6.1-1.7,9.1-0.8l27.6,8.4
	c0.6,0.2,1.1,0.6,1.4,1.2l7.8,15.8c3.3,6.8,9.5,11.2,16.6,12c6.1,0.6,12.1-1.6,16.6-6.2s6.8-11.1,6.5-17.7l-0.9-18.7
	c0-0.9,0.4-1.8,1.1-2.3l6.4-4.4c10.2-7,18.2-17,23-29.1l5.1-12.6c4.3-10.6,5.9-22.3,4.7-33.8l-0.5-4.4c-0.6-5.7-1.9-11.3-3.8-16.6
	l-0.5-1.5c-1.8-4.9-4.1-9.6-6.9-13.8l0,0c6.9-0.7,13.8-1,20.7-1c45.4,0,88.6,13.7,125.3,39.8l0.1,9.4c0,2.6-1.9,4.8-4.3,4.9
	l-16.3,0.5c-10.5,0.3-19.6,8.3-22,19.5l-4.3,20c-2.3,10.8,2.2,22.2,11.1,27.7l19.2,11.9c3,1.9,6.3,2.8,9.7,2.8
	c3.7,0,7.4-1.2,10.7-3.5l13.6-9.7c5.7-4,9.1-11.1,8.8-18.5c0-0.1,0-0.4,0.3-0.6c0.3-0.2,0.5-0.2,0.6-0.2l21.1,5.3
	c0.5,0.1,1.1,0.2,1.6,0.3l14.9,2.3l0,0c6.5,11.7,11.8,24,16,36.6l-14.5-3.8c-0.6-0.2-1.2-0.3-1.8-0.4l-15.9-2.8
	c-17.2-3-34.8,3.3-46.9,17l-2.4,2.7c-7.1,8-11.9,18-13.9,28.9l-6.1,33.2c-2.1,11.6-0.9,23.4,3.4,34.3c7.6,18.9,24,32.1,42.8,34.5
	l2.9,0.4c8.1,1,16.4,0,24-3l10-3.9c1.8-0.7,3.8-0.1,5,1.5l1.3,1.8c0.6,0.8,1,1.9,1,2.9l0.5,17.7C415.6,424.1,339.1,472.2,256,472.2z
	 M464.5,315.6l-1.1-1.5c-4.5-6-11.2-9.4-18.1-9.4c-2.6,0-5.3,0.5-7.8,1.5l-10,3.9c-4.9,1.9-10.3,2.6-15.5,2l-2.9-0.4
	c-12.2-1.5-22.8-10.1-27.7-22.3c-2.8-7-3.6-14.7-2.2-22.2l6.1-33.2c1.3-7.1,4.4-13.5,9-18.7l2.4-2.7c7.8-8.9,19.2-13,30.4-11
	l15.9,2.8c0.1,0,0.2,0,0.3,0.1l25.1,6.6c3.1,14.8,4.7,29.9,4.7,45C472.8,276.4,470,296.4,464.5,315.6z"/>
</svg>
